<mxfile host="app.diagrams.net" agent="Mozilla/5.0 (Macintosh; Intel Mac OS X 10_15_7) AppleWebKit/537.36 (KHTML, like Gecko) Chrome/139.0.0.0 Safari/537.36 Edg/139.0.0.0" version="28.2.3">
  <diagram name="第 1 页" id="q0V8W7kwhwEqNArDtckt">
    <mxGraphModel dx="3072" dy="1600" grid="0" gridSize="10" guides="1" tooltips="1" connect="1" arrows="1" fold="1" page="0" pageScale="1" pageWidth="827" pageHeight="1169" background="none" math="0" shadow="0">
      <root>
        <mxCell id="0" />
        <mxCell id="1" parent="0" />
        <mxCell id="i7mNR8dPAMuf2d2NT4Wx-52" style="edgeStyle=orthogonalEdgeStyle;rounded=0;orthogonalLoop=1;jettySize=auto;html=1;entryX=0;entryY=0.5;entryDx=0;entryDy=0;" parent="1" source="i7mNR8dPAMuf2d2NT4Wx-23" target="i7mNR8dPAMuf2d2NT4Wx-39" edge="1">
          <mxGeometry relative="1" as="geometry" />
        </mxCell>
        <mxCell id="i7mNR8dPAMuf2d2NT4Wx-23" value="" style="rounded=0;whiteSpace=wrap;html=1;fillColor=#d5e8d4;strokeColor=#82b366;" parent="1" vertex="1">
          <mxGeometry x="-130" y="176" width="416" height="103" as="geometry" />
        </mxCell>
        <mxCell id="i7mNR8dPAMuf2d2NT4Wx-24" value="&lt;font style=&quot;font-size: 14px;&quot;&gt;&lt;b&gt;Tensor C&lt;/b&gt;&lt;/font&gt;" style="text;html=1;align=center;verticalAlign=middle;whiteSpace=wrap;rounded=0;" parent="1" vertex="1">
          <mxGeometry x="-127" y="245" width="68" height="30" as="geometry" />
        </mxCell>
        <mxCell id="i7mNR8dPAMuf2d2NT4Wx-50" style="edgeStyle=orthogonalEdgeStyle;rounded=0;orthogonalLoop=1;jettySize=auto;html=1;entryX=0;entryY=0.5;entryDx=0;entryDy=0;" parent="1" source="i7mNR8dPAMuf2d2NT4Wx-20" target="i7mNR8dPAMuf2d2NT4Wx-41" edge="1">
          <mxGeometry relative="1" as="geometry" />
        </mxCell>
        <mxCell id="i7mNR8dPAMuf2d2NT4Wx-51" value="all_gather" style="edgeLabel;html=1;align=center;verticalAlign=middle;resizable=0;points=[];fontSize=14;" parent="i7mNR8dPAMuf2d2NT4Wx-50" vertex="1" connectable="0">
          <mxGeometry x="-0.0064" y="-1" relative="1" as="geometry">
            <mxPoint as="offset" />
          </mxGeometry>
        </mxCell>
        <mxCell id="i7mNR8dPAMuf2d2NT4Wx-20" value="" style="rounded=0;whiteSpace=wrap;html=1;fillColor=#d5e8d4;strokeColor=#82b366;" parent="1" vertex="1">
          <mxGeometry x="-130" y="61" width="416" height="103" as="geometry" />
        </mxCell>
        <mxCell id="i7mNR8dPAMuf2d2NT4Wx-25" style="edgeStyle=orthogonalEdgeStyle;rounded=0;orthogonalLoop=1;jettySize=auto;html=1;" parent="1" source="i7mNR8dPAMuf2d2NT4Wx-18" target="i7mNR8dPAMuf2d2NT4Wx-20" edge="1">
          <mxGeometry relative="1" as="geometry" />
        </mxCell>
        <mxCell id="i7mNR8dPAMuf2d2NT4Wx-28" value="createSubmeshTensor" style="edgeLabel;html=1;align=center;verticalAlign=middle;resizable=0;points=[];fontSize=13;" parent="i7mNR8dPAMuf2d2NT4Wx-25" vertex="1" connectable="0">
          <mxGeometry x="-0.2128" y="-1" relative="1" as="geometry">
            <mxPoint y="1" as="offset" />
          </mxGeometry>
        </mxCell>
        <mxCell id="i7mNR8dPAMuf2d2NT4Wx-3" value="" style="rounded=0;whiteSpace=wrap;html=1;fillColor=#ffe6cc;strokeColor=#d79b00;" parent="1" vertex="1">
          <mxGeometry x="-60" y="93" width="120" height="60" as="geometry" />
        </mxCell>
        <mxCell id="i7mNR8dPAMuf2d2NT4Wx-6" value="" style="rounded=0;whiteSpace=wrap;html=1;fillColor=#f8cecc;strokeColor=#b85450;" parent="1" vertex="1">
          <mxGeometry x="-60" y="180" width="120" height="60" as="geometry" />
        </mxCell>
        <mxCell id="i7mNR8dPAMuf2d2NT4Wx-8" value="" style="rounded=0;whiteSpace=wrap;html=1;fillColor=#dae8fc;strokeColor=#6c8ebf;" parent="1" vertex="1">
          <mxGeometry x="82" y="93" width="120" height="60" as="geometry" />
        </mxCell>
        <mxCell id="i7mNR8dPAMuf2d2NT4Wx-9" value="" style="rounded=0;whiteSpace=wrap;html=1;fillColor=#e1d5e7;strokeColor=#9673a6;" parent="1" vertex="1">
          <mxGeometry x="82" y="178" width="120" height="60" as="geometry" />
        </mxCell>
        <mxCell id="i7mNR8dPAMuf2d2NT4Wx-11" value="" style="endArrow=none;dashed=1;html=1;rounded=0;" parent="1" edge="1">
          <mxGeometry width="50" height="50" relative="1" as="geometry">
            <mxPoint x="-147" y="169" as="sourcePoint" />
            <mxPoint x="316" y="169" as="targetPoint" />
          </mxGeometry>
        </mxCell>
        <mxCell id="i7mNR8dPAMuf2d2NT4Wx-22" value="&lt;font style=&quot;font-size: 14px;&quot;&gt;&lt;b&gt;Tensor B&lt;/b&gt;&lt;/font&gt;" style="text;html=1;align=center;verticalAlign=middle;whiteSpace=wrap;rounded=0;" parent="1" vertex="1">
          <mxGeometry x="-126" y="63" width="68" height="30" as="geometry" />
        </mxCell>
        <mxCell id="i7mNR8dPAMuf2d2NT4Wx-26" value="" style="group" parent="1" vertex="1" connectable="0">
          <mxGeometry x="-130" y="-223" width="416" height="199" as="geometry" />
        </mxCell>
        <mxCell id="i7mNR8dPAMuf2d2NT4Wx-18" value="" style="rounded=0;whiteSpace=wrap;html=1;fillColor=#d5e8d4;strokeColor=#82b366;movable=0;resizable=0;rotatable=0;deletable=0;editable=0;locked=1;connectable=0;" parent="i7mNR8dPAMuf2d2NT4Wx-26" vertex="1">
          <mxGeometry width="416" height="199" as="geometry" />
        </mxCell>
        <mxCell id="i7mNR8dPAMuf2d2NT4Wx-12" value="" style="rounded=0;whiteSpace=wrap;html=1;fillColor=#ffe6cc;strokeColor=#d79b00;gradientColor=none;" parent="i7mNR8dPAMuf2d2NT4Wx-26" vertex="1">
          <mxGeometry x="69" y="38" width="120" height="60" as="geometry" />
        </mxCell>
        <mxCell id="i7mNR8dPAMuf2d2NT4Wx-13" value="" style="rounded=0;whiteSpace=wrap;html=1;fillColor=#f8cecc;strokeColor=#b85450;" parent="i7mNR8dPAMuf2d2NT4Wx-26" vertex="1">
          <mxGeometry x="69" y="114" width="120" height="60" as="geometry" />
        </mxCell>
        <mxCell id="i7mNR8dPAMuf2d2NT4Wx-14" value="" style="rounded=0;whiteSpace=wrap;html=1;fillColor=#dae8fc;strokeColor=#6c8ebf;" parent="i7mNR8dPAMuf2d2NT4Wx-26" vertex="1">
          <mxGeometry x="211" y="38" width="120" height="60" as="geometry" />
        </mxCell>
        <mxCell id="i7mNR8dPAMuf2d2NT4Wx-15" value="" style="rounded=0;whiteSpace=wrap;html=1;fillColor=#e1d5e7;strokeColor=#9673a6;" parent="i7mNR8dPAMuf2d2NT4Wx-26" vertex="1">
          <mxGeometry x="211" y="114" width="120" height="60" as="geometry" />
        </mxCell>
        <mxCell id="i7mNR8dPAMuf2d2NT4Wx-19" value="&lt;font style=&quot;font-size: 14px;&quot;&gt;&lt;b&gt;Tensor A&lt;/b&gt;&lt;/font&gt;" style="text;html=1;align=center;verticalAlign=middle;whiteSpace=wrap;rounded=0;" parent="i7mNR8dPAMuf2d2NT4Wx-26" vertex="1">
          <mxGeometry x="3" y="3" width="68" height="30" as="geometry" />
        </mxCell>
        <mxCell id="O7aVcSqHBsZipS5b6KSP-2" value="device:{(0,0),(0,3)}" style="text;html=1;align=center;verticalAlign=middle;resizable=0;points=[];autosize=1;strokeColor=none;fillColor=none;fontSize=13;" vertex="1" parent="i7mNR8dPAMuf2d2NT4Wx-26">
          <mxGeometry x="71" y="4" width="125" height="28" as="geometry" />
        </mxCell>
        <mxCell id="i7mNR8dPAMuf2d2NT4Wx-84" style="edgeStyle=orthogonalEdgeStyle;rounded=0;orthogonalLoop=1;jettySize=auto;html=1;entryX=0.5;entryY=0;entryDx=0;entryDy=0;" parent="1" source="i7mNR8dPAMuf2d2NT4Wx-39" target="i7mNR8dPAMuf2d2NT4Wx-60" edge="1">
          <mxGeometry relative="1" as="geometry" />
        </mxCell>
        <mxCell id="i7mNR8dPAMuf2d2NT4Wx-85" value="concatSubmeshTensor" style="edgeLabel;html=1;align=center;verticalAlign=middle;resizable=0;points=[];fontSize=13;" parent="i7mNR8dPAMuf2d2NT4Wx-84" vertex="1" connectable="0">
          <mxGeometry x="-0.2174" y="1" relative="1" as="geometry">
            <mxPoint as="offset" />
          </mxGeometry>
        </mxCell>
        <mxCell id="i7mNR8dPAMuf2d2NT4Wx-39" value="" style="rounded=0;whiteSpace=wrap;html=1;fillColor=#d5e8d4;strokeColor=#82b366;" parent="1" vertex="1">
          <mxGeometry x="443" y="176" width="416" height="103" as="geometry" />
        </mxCell>
        <mxCell id="i7mNR8dPAMuf2d2NT4Wx-40" value="&lt;font style=&quot;font-size: 14px;&quot;&gt;&lt;b&gt;Tensor C1&lt;/b&gt;&lt;/font&gt;" style="text;html=1;align=center;verticalAlign=middle;whiteSpace=wrap;rounded=0;" parent="1" vertex="1">
          <mxGeometry x="446" y="245" width="79" height="30" as="geometry" />
        </mxCell>
        <mxCell id="i7mNR8dPAMuf2d2NT4Wx-41" value="" style="rounded=0;whiteSpace=wrap;html=1;fillColor=#d5e8d4;strokeColor=#82b366;" parent="1" vertex="1">
          <mxGeometry x="443" y="61" width="416" height="103" as="geometry" />
        </mxCell>
        <mxCell id="i7mNR8dPAMuf2d2NT4Wx-42" value="" style="rounded=0;whiteSpace=wrap;html=1;fillColor=#ffe6cc;strokeColor=#d79b00;" parent="1" vertex="1">
          <mxGeometry x="513" y="93" width="62" height="60" as="geometry" />
        </mxCell>
        <mxCell id="i7mNR8dPAMuf2d2NT4Wx-43" value="" style="rounded=0;whiteSpace=wrap;html=1;fillColor=#f8cecc;strokeColor=#b85450;" parent="1" vertex="1">
          <mxGeometry x="513" y="180" width="60" height="60" as="geometry" />
        </mxCell>
        <mxCell id="i7mNR8dPAMuf2d2NT4Wx-44" value="" style="rounded=0;whiteSpace=wrap;html=1;fillColor=#dae8fc;strokeColor=#6c8ebf;" parent="1" vertex="1">
          <mxGeometry x="575" y="93" width="57" height="60" as="geometry" />
        </mxCell>
        <mxCell id="i7mNR8dPAMuf2d2NT4Wx-45" value="" style="rounded=0;whiteSpace=wrap;html=1;fillColor=#e1d5e7;strokeColor=#9673a6;" parent="1" vertex="1">
          <mxGeometry x="573" y="180" width="63" height="60" as="geometry" />
        </mxCell>
        <mxCell id="i7mNR8dPAMuf2d2NT4Wx-46" value="" style="endArrow=none;dashed=1;html=1;rounded=0;" parent="1" edge="1">
          <mxGeometry width="50" height="50" relative="1" as="geometry">
            <mxPoint x="426" y="169" as="sourcePoint" />
            <mxPoint x="889" y="169" as="targetPoint" />
          </mxGeometry>
        </mxCell>
        <mxCell id="i7mNR8dPAMuf2d2NT4Wx-47" value="&lt;font style=&quot;font-size: 14px;&quot;&gt;&lt;b&gt;Tensor B1&lt;/b&gt;&lt;/font&gt;" style="text;html=1;align=center;verticalAlign=middle;whiteSpace=wrap;rounded=0;" parent="1" vertex="1">
          <mxGeometry x="447" y="63" width="81" height="30" as="geometry" />
        </mxCell>
        <mxCell id="i7mNR8dPAMuf2d2NT4Wx-53" value="all_gather" style="edgeLabel;html=1;align=center;verticalAlign=middle;resizable=0;points=[];fontSize=14;" parent="1" vertex="1" connectable="0">
          <mxGeometry x="360" y="220" as="geometry" />
        </mxCell>
        <mxCell id="i7mNR8dPAMuf2d2NT4Wx-54" value="" style="rounded=0;whiteSpace=wrap;html=1;fillColor=#dae8fc;strokeColor=#6c8ebf;" parent="1" vertex="1">
          <mxGeometry x="718" y="93" width="57" height="60" as="geometry" />
        </mxCell>
        <mxCell id="i7mNR8dPAMuf2d2NT4Wx-55" value="" style="rounded=0;whiteSpace=wrap;html=1;fillColor=#ffe6cc;strokeColor=#d79b00;" parent="1" vertex="1">
          <mxGeometry x="656" y="93" width="62" height="60" as="geometry" />
        </mxCell>
        <mxCell id="i7mNR8dPAMuf2d2NT4Wx-56" value="" style="rounded=0;whiteSpace=wrap;html=1;fillColor=#e1d5e7;strokeColor=#9673a6;" parent="1" vertex="1">
          <mxGeometry x="719" y="183" width="63" height="60" as="geometry" />
        </mxCell>
        <mxCell id="i7mNR8dPAMuf2d2NT4Wx-57" value="" style="rounded=0;whiteSpace=wrap;html=1;fillColor=#f8cecc;strokeColor=#b85450;" parent="1" vertex="1">
          <mxGeometry x="659" y="183" width="60" height="60" as="geometry" />
        </mxCell>
        <mxCell id="i7mNR8dPAMuf2d2NT4Wx-60" value="" style="rounded=0;whiteSpace=wrap;html=1;fillColor=#d5e8d4;strokeColor=#82b366;" parent="1" vertex="1">
          <mxGeometry x="438" y="348" width="426" height="219" as="geometry" />
        </mxCell>
        <mxCell id="i7mNR8dPAMuf2d2NT4Wx-61" value="" style="rounded=0;whiteSpace=wrap;html=1;fillColor=#ffe6cc;strokeColor=#d79b00;" parent="1" vertex="1">
          <mxGeometry x="508" y="380" width="62" height="60" as="geometry" />
        </mxCell>
        <mxCell id="i7mNR8dPAMuf2d2NT4Wx-62" value="" style="rounded=0;whiteSpace=wrap;html=1;fillColor=#f8cecc;strokeColor=#b85450;" parent="1" vertex="1">
          <mxGeometry x="508" y="467" width="60" height="60" as="geometry" />
        </mxCell>
        <mxCell id="i7mNR8dPAMuf2d2NT4Wx-63" value="" style="rounded=0;whiteSpace=wrap;html=1;fillColor=#dae8fc;strokeColor=#6c8ebf;" parent="1" vertex="1">
          <mxGeometry x="570" y="380" width="57" height="60" as="geometry" />
        </mxCell>
        <mxCell id="i7mNR8dPAMuf2d2NT4Wx-64" value="" style="rounded=0;whiteSpace=wrap;html=1;fillColor=#e1d5e7;strokeColor=#9673a6;" parent="1" vertex="1">
          <mxGeometry x="568" y="467" width="63" height="60" as="geometry" />
        </mxCell>
        <mxCell id="i7mNR8dPAMuf2d2NT4Wx-66" value="&lt;font style=&quot;font-size: 14px;&quot;&gt;&lt;b&gt;Tensor D&lt;/b&gt;&lt;/font&gt;" style="text;html=1;align=center;verticalAlign=middle;whiteSpace=wrap;rounded=0;" parent="1" vertex="1">
          <mxGeometry x="442" y="350" width="81" height="30" as="geometry" />
        </mxCell>
        <mxCell id="i7mNR8dPAMuf2d2NT4Wx-67" value="" style="rounded=0;whiteSpace=wrap;html=1;fillColor=#dae8fc;strokeColor=#6c8ebf;" parent="1" vertex="1">
          <mxGeometry x="713" y="380" width="57" height="60" as="geometry" />
        </mxCell>
        <mxCell id="i7mNR8dPAMuf2d2NT4Wx-68" value="" style="rounded=0;whiteSpace=wrap;html=1;fillColor=#ffe6cc;strokeColor=#d79b00;" parent="1" vertex="1">
          <mxGeometry x="651" y="380" width="62" height="60" as="geometry" />
        </mxCell>
        <mxCell id="i7mNR8dPAMuf2d2NT4Wx-69" value="" style="rounded=0;whiteSpace=wrap;html=1;fillColor=#e1d5e7;strokeColor=#9673a6;" parent="1" vertex="1">
          <mxGeometry x="714" y="470" width="63" height="60" as="geometry" />
        </mxCell>
        <mxCell id="i7mNR8dPAMuf2d2NT4Wx-70" value="" style="rounded=0;whiteSpace=wrap;html=1;fillColor=#f8cecc;strokeColor=#b85450;" parent="1" vertex="1">
          <mxGeometry x="654" y="470" width="60" height="60" as="geometry" />
        </mxCell>
        <mxCell id="i7mNR8dPAMuf2d2NT4Wx-71" value="shape : (4,6)" style="text;html=1;align=center;verticalAlign=middle;whiteSpace=wrap;rounded=0;fontSize=13;" parent="1" vertex="1">
          <mxGeometry x="-243" y="-220" width="113" height="30" as="geometry" />
        </mxCell>
        <mxCell id="i7mNR8dPAMuf2d2NT4Wx-72" value="TP(2) : S(0)&lt;br&gt;SP(2) : S(1)" style="text;html=1;align=center;verticalAlign=middle;whiteSpace=wrap;rounded=0;fontSize=13;" parent="1" vertex="1">
          <mxGeometry x="-248" y="-190" width="113" height="30" as="geometry" />
        </mxCell>
        <mxCell id="i7mNR8dPAMuf2d2NT4Wx-73" value="shape : (2,6)" style="text;html=1;align=center;verticalAlign=middle;whiteSpace=wrap;rounded=0;fontSize=13;" parent="1" vertex="1">
          <mxGeometry x="865" y="78" width="113" height="30" as="geometry" />
        </mxCell>
        <mxCell id="i7mNR8dPAMuf2d2NT4Wx-74" value="SP(2) : R" style="text;html=1;align=center;verticalAlign=middle;whiteSpace=wrap;rounded=0;fontSize=13;" parent="1" vertex="1">
          <mxGeometry x="857" y="108" width="113" height="30" as="geometry" />
        </mxCell>
        <mxCell id="i7mNR8dPAMuf2d2NT4Wx-75" value="shape : (2,6)" style="text;html=1;align=center;verticalAlign=middle;whiteSpace=wrap;rounded=0;fontSize=13;" parent="1" vertex="1">
          <mxGeometry x="-240" y="201" width="113" height="30" as="geometry" />
        </mxCell>
        <mxCell id="i7mNR8dPAMuf2d2NT4Wx-76" value="SP(2) : S(1)" style="text;html=1;align=center;verticalAlign=middle;whiteSpace=wrap;rounded=0;fontSize=13;" parent="1" vertex="1">
          <mxGeometry x="-240" y="231" width="113" height="30" as="geometry" />
        </mxCell>
        <mxCell id="i7mNR8dPAMuf2d2NT4Wx-77" value="shape : (2,6)" style="text;html=1;align=center;verticalAlign=middle;whiteSpace=wrap;rounded=0;fontSize=13;" parent="1" vertex="1">
          <mxGeometry x="868" y="193" width="113" height="30" as="geometry" />
        </mxCell>
        <mxCell id="i7mNR8dPAMuf2d2NT4Wx-78" value="SP(2) : R" style="text;html=1;align=center;verticalAlign=middle;whiteSpace=wrap;rounded=0;fontSize=13;" parent="1" vertex="1">
          <mxGeometry x="859" y="223" width="113" height="30" as="geometry" />
        </mxCell>
        <mxCell id="i7mNR8dPAMuf2d2NT4Wx-80" value="shape : (2,6)" style="text;html=1;align=center;verticalAlign=middle;whiteSpace=wrap;rounded=0;fontSize=13;" parent="1" vertex="1">
          <mxGeometry x="870" y="413" width="113" height="30" as="geometry" />
        </mxCell>
        <mxCell id="i7mNR8dPAMuf2d2NT4Wx-81" value="&amp;nbsp; &amp;nbsp; TP(2) : S(0)&lt;br&gt;SP(2) : R" style="text;html=1;align=center;verticalAlign=middle;whiteSpace=wrap;rounded=0;fontSize=13;" parent="1" vertex="1">
          <mxGeometry x="862" y="445" width="113" height="30" as="geometry" />
        </mxCell>
        <mxCell id="i7mNR8dPAMuf2d2NT4Wx-82" value="shape : (2,6)" style="text;html=1;align=center;verticalAlign=middle;whiteSpace=wrap;rounded=0;fontSize=13;" parent="1" vertex="1">
          <mxGeometry x="-237" y="68" width="113" height="30" as="geometry" />
        </mxCell>
        <mxCell id="i7mNR8dPAMuf2d2NT4Wx-83" value="SP(2) : S(1)" style="text;html=1;align=center;verticalAlign=middle;whiteSpace=wrap;rounded=0;fontSize=13;" parent="1" vertex="1">
          <mxGeometry x="-240" y="97.5" width="113" height="30" as="geometry" />
        </mxCell>
        <mxCell id="i7mNR8dPAMuf2d2NT4Wx-86" value="device:{(0,0),(0,3)}" style="text;html=1;align=center;verticalAlign=middle;resizable=0;points=[];autosize=1;strokeColor=none;fillColor=none;fontSize=13;" parent="1" vertex="1">
          <mxGeometry x="-52" y="64" width="125" height="28" as="geometry" />
        </mxCell>
        <mxCell id="O7aVcSqHBsZipS5b6KSP-4" value="device:{(0,0),(0,3)}" style="text;html=1;align=center;verticalAlign=middle;resizable=0;points=[];autosize=1;strokeColor=none;fillColor=none;fontSize=13;" vertex="1" parent="1">
          <mxGeometry x="-56" y="246.5" width="125" height="28" as="geometry" />
        </mxCell>
        <mxCell id="O7aVcSqHBsZipS5b6KSP-6" value="device:{(0,0),(0,3)}" style="text;html=1;align=center;verticalAlign=middle;resizable=0;points=[];autosize=1;strokeColor=none;fillColor=none;fontSize=13;" vertex="1" parent="1">
          <mxGeometry x="526" y="63" width="125" height="28" as="geometry" />
        </mxCell>
        <mxCell id="O7aVcSqHBsZipS5b6KSP-8" value="device:{(0,0),(0,3)}" style="text;html=1;align=center;verticalAlign=middle;resizable=0;points=[];autosize=1;strokeColor=none;fillColor=none;fontSize=13;" vertex="1" parent="1">
          <mxGeometry x="522.5" y="246.5" width="125" height="28" as="geometry" />
        </mxCell>
        <mxCell id="O7aVcSqHBsZipS5b6KSP-10" value="device:{(0,0),(0,3)}" style="text;html=1;align=center;verticalAlign=middle;resizable=0;points=[];autosize=1;strokeColor=none;fillColor=none;fontSize=13;" vertex="1" parent="1">
          <mxGeometry x="522.5" y="352" width="125" height="28" as="geometry" />
        </mxCell>
      </root>
    </mxGraphModel>
  </diagram>
</mxfile>
